<?xml version="1.0" standalone="no"?>
<!DOCTYPE svg PUBLIC "-//W3C//DTD SVG 1.1//EN"
"http://www.w3.org/Graphics/SVG/1.1/DTD/svg11.dtd">

<svg width="356" height="170" view_box="0 0 356 170"
xmlns="http://www.w3.org/2000/svg"
xmlns:link="http://www.w3.org/1999/xlink">\n\n<desc>Généré par Mocodo 2.3.7 le Wed, 03 Mar 2021 07:50:40</desc>

<rect id="frame" x="0" y="0" width="356" height="170" fill="#ffffbf" stroke="none" stroke-width="0"/>

<!-- Association has for category -->
<line x1="308" y1="85" x2="180" y2="85" stroke="#f46d43" stroke-width="2"/>
<text x="242" y="102.0" fill="#4575b4" font-family="Verdana" font-size="12">0,N</text>
<line x1="50" y1="85" x2="180" y2="85" stroke="#f46d43" stroke-width="2"/>
<text x="96" y="102.0" fill="#4575b4" font-family="Verdana" font-size="12">1,1</text>
<g id="association-has for category">
	<path d="M 223 60 a 14 14 90 0 1 14 14 V 85 h -114 V 74 a 14 14 90 0 1 14 -14" fill="#fdae61" stroke="#fdae61" stroke-width="0"/>
	<path d="M 237 85.0 v 11 a 14 14 90 0 1 -14 14 H 137 a 14 14 90 0 1 -14 -14 V 85.0 H 114" fill="#fee090" stroke="#fee090" stroke-width="0"/>
	<rect x="123" y="60" width="114" height="50" fill="none" rx="14" stroke="#f46d43" stroke-width="2"/>
	<line x1="123" y1="85" x2="237" y2="85" stroke="#f46d43" stroke-width="1"/>
	<text x="130" y="77.7" fill="#000000" font-family="Verdana" font-size="12">has for category</text>
</g>

<!-- Entity CATEGORY -->
<g id="entity-CATEGORY">
	<g id="frame-CATEGORY">
		<rect x="269" y="43" width="78" height="25" fill="#abd9e9" stroke="#abd9e9" stroke-width="0"/>
		<rect x="269" y="68.0" width="78" height="59" fill="#e0f3f8" stroke="#e0f3f8" stroke-width="0"/>
		<rect x="269" y="43" width="78" height="84" fill="none" stroke="#74add1" stroke-width="2"/>
		<line x1="269" y1="68" x2="347" y2="68" stroke="#74add1" stroke-width="1"/>
	</g>
	<text x="274" y="60.7" fill="#000000" font-family="Verdana" font-size="12">CATEGORY</text>
	<text x="274" y="85.8" fill="#000000" font-family="Verdana" font-size="12">id</text>
	<line x1="274" y1="88" x2="286" y2="88" stroke="#000000" stroke-width="1"/>
	<text x="274" y="102.8" fill="#000000" font-family="Verdana" font-size="12">name</text>
	<text x="274" y="119.8" fill="#000000" font-family="Verdana" font-size="12">status</text>
</g>

<!-- Entity TASK -->
<g id="entity-TASK">
	<g id="frame-TASK">
		<rect x="9" y="9" width="82" height="25" fill="#abd9e9" stroke="#abd9e9" stroke-width="0"/>
		<rect x="9" y="34.0" width="82" height="127" fill="#e0f3f8" stroke="#e0f3f8" stroke-width="0"/>
		<rect x="9" y="9" width="82" height="152" fill="none" stroke="#74add1" stroke-width="2"/>
		<line x1="9" y1="34" x2="91" y2="34" stroke="#74add1" stroke-width="1"/>
	</g>
	<text x="33" y="26.7" fill="#000000" font-family="Verdana" font-size="12">TASK</text>
	<text x="14" y="51.7" fill="#000000" font-family="Verdana" font-size="12">id</text>
	<line x1="14" y1="54" x2="26" y2="54" stroke="#000000" stroke-width="1"/>
	<text x="14" y="68.7" fill="#000000" font-family="Verdana" font-size="12">title</text>
	<text x="14" y="85.8" fill="#000000" font-family="Verdana" font-size="12">completion</text>
	<text x="14" y="102.8" fill="#000000" font-family="Verdana" font-size="12">status</text>
	<text x="14" y="119.8" fill="#000000" font-family="Verdana" font-size="12">category_id</text>
	<text x="14" y="136.8" fill="#000000" font-family="Verdana" font-size="12">created_ad</text>
	<text x="14" y="153.8" fill="#000000" font-family="Verdana" font-size="12">updated_at</text>
</g>
</svg>